/* XPM */
static char *e8149e4bc2104a1a90b930bfcb6a7277HrVYjI9hZDSUBRNu[] = {
/* columns rows colors chars-per-pixel */
"30 30 215 2 ",
"   c None",
".  c black",
"X  c #000002",
"o  c #050200",
"O  c #1B0800",
"+  c #0D1200",
"@  c #0E1203",
"#  c #191F00",
"$  c #230600",
"%  c #360300",
"&  c #370F00",
"*  c #3D1602",
"=  c #003002",
"-  c #3F3C02",
";  c #4D0A00",
":  c #580C00",
">  c #471300",
",  c #481400",
"<  c #4A1500",
"1  c #4B1700",
"2  c #4D1702",
"3  c #5A1900",
"4  c #581C00",
"5  c #6C1300",
"6  c #6F1A00",
"7  c #6C1C00",
"8  c #771800",
"9  c #44270F",
"0  c #662000",
"q  c #672000",
"w  c #6D2100",
"e  c #722300",
"r  c #742600",
"t  c #792700",
"y  c #762800",
"u  c #7A2900",
"i  c #7F2A00",
"p  c #7F2B00",
"a  c #762B08",
"s  c #354103",
"d  c #375003",
"f  c #4B5604",
"g  c #4F5F03",
"h  c #4D5D04",
"j  c #4E5B1B",
"k  c #4E581F",
"l  c #735D04",
"z  c #546600",
"x  c #536004",
"c  c #5B6F04",
"v  c #437B04",
"b  c #5F7708",
"n  c #607400",
"m  c #7C7006",
"M  c #787E06",
"N  c #5C6822",
"B  c #617021",
"V  c #657129",
"C  c #822C00",
"Z  c #832C00",
"A  c #852C00",
"S  c #862E00",
"D  c #882D00",
"F  c #892D01",
"G  c #892F00",
"H  c #8A2E00",
"J  c #9E2900",
"K  c #9C2D00",
"L  c #8F3001",
"P  c #903100",
"I  c #973500",
"U  c #993200",
"Y  c #883710",
"T  c #A43000",
"R  c #A13500",
"E  c #A03701",
"W  c #A43400",
"Q  c #AC3500",
"!  c #AC3900",
"~  c #AE3800",
"^  c #B73700",
"/  c #B03A00",
"(  c #B13A00",
")  c #B53D01",
"_  c #B63C00",
"`  c #BA3A00",
"'  c #B93C00",
"]  c #BB3E00",
"[  c #BA3E02",
"{  c #C03C00",
"}  c #924217",
"|  c #9A4015",
" . c #B94006",
".. c #BF4B00",
"X. c #B6410C",
"o. c #B56201",
"O. c #C64100",
"+. c #C54200",
"@. c #C94301",
"#. c #C84401",
"$. c #CD4400",
"%. c #CF4500",
"&. c #D04500",
"*. c #D24600",
"=. c #D34600",
"-. c #D24601",
";. c #D64700",
":. c #D84700",
">. c #D74801",
",. c #DD4A00",
"<. c #DE4A00",
"1. c #C04811",
"2. c #D85B1F",
"3. c #E14900",
"4. c #E24D02",
"5. c #E44C01",
"6. c #E64C00",
"7. c #E74E00",
"8. c #EB4C00",
"9. c #E94E00",
"0. c #ED4F01",
"q. c #F34800",
"w. c #F04E00",
"e. c #F34E00",
"r. c #F44E00",
"t. c #E45603",
"y. c #EF5000",
"u. c #F55000",
"i. c #F45100",
"p. c #F65100",
"a. c #F75200",
"s. c #F75202",
"d. c #F15105",
"f. c #FB5100",
"g. c #F85200",
"h. c #F95200",
"j. c #FA5300",
"k. c #FC5200",
"l. c #FF5300",
"z. c #FC5400",
"x. c #FC5500",
"c. c #FC5501",
"v. c #FD5501",
"b. c #FF5400",
"n. c #FF5500",
"m. c #FE5501",
"M. c #FF5600",
"N. c #FF5704",
"B. c #FE5707",
"V. c #FF5904",
"C. c #FF5A05",
"Z. c #F0570F",
"A. c #F9570A",
"S. c #FC5708",
"D. c #FF590C",
"F. c #FF5A0C",
"G. c #FF5B0E",
"H. c #ED5711",
"J. c #E85714",
"K. c #E05A1A",
"L. c #E45E1D",
"P. c #FB5A10",
"I. c #FC5C10",
"U. c #FE5D13",
"Y. c #FF5F13",
"T. c #F85C14",
"R. c #FE5E14",
"E. c #FF5F14",
"W. c #FE5F17",
"Q. c #FF6315",
"!. c #FF6317",
"~. c #FF6219",
"^. c #FF601A",
"/. c #FF661C",
"(. c #FF671D",
"). c #FE651E",
"_. c #FF681D",
"`. c #F76520",
"'. c #FD6822",
"]. c #FF6E27",
"[. c #FF6F27",
"{. c #FD6F29",
"}. c #FF7029",
"|. c #FF722D",
" X c #FF742C",
".X c #FF752E",
"XX c #6B8200",
"oX c #6F8302",
"OX c #6B8104",
"+X c #6C8109",
"@X c #6E840C",
"#X c #6F850C",
"$X c #6B8808",
"%X c #708507",
"&X c #738B07",
"*X c #7B8D09",
"=X c #7B9308",
"-X c #74881E",
";X c #798F1D",
":X c #768B22",
">X c #72812D",
",X c #7B8B2D",
"<X c #839D0B",
"1X c #809F13",
"2X c #80971D",
"3X c #85A00E",
"4X c #86A010",
"5X c #8D8F28",
"6X c #8FA625",
"7X c #91A730",
"8X c #93A832",
"9X c #94A932",
"0X c #95AD31",
"qX c #9BAD41",
"wX c #A4B944",
/* pixels */
"                                                            ",
"                                                            ",
"                                                            ",
"                                              V k j N X     ",
"                                        g s >X0X,XqXwX+     ",
"                                    - x &X@X2X;X7X6XB       ",
"                                    = $X*Xn -X8X4XXXz +     ",
"                                8 J I m v :X9X3XOX@X<X#     ",
"                            : X.L._.~.t.o.5X1XoX+X=Xc       ",
"                            ` Q. X|.{.B.q...M b %Xh         ",
"                          5 e.b.B.A.S.b.b.4.l d f           ",
"                        7 J.~.W.F.9.[ =.b.5.A X             ",
"                      2 :.Q.'.}.Y.b.#.p ;.$.p O             ",
"                      K b.f.b.F.k.b.9./ F P u $             ",
"                    Y Z.V.9.@.3.b.b.<.[ Z A 1               ",
"                  } `.[.).k.[ L $.y.+.F Z 1                 ",
"                X K.V.F.W.b.0.E U ) Z 0 1                   ",
"                W a.5.5.b.b.<.+.p 4 >                       ",
"              |  XW.e.E ) f.=.F 0                           ",
"            ; H.[.P.f.=.y / t X                             ",
"            { a.r.b.<.+.r o                                 ",
"           .).d.>.f.=.e &                                   ",
"        T ).Y.a.~ w 3                                       ",
"      9 1.a.a.~ 1                                           ",
"      2.T.Q F X                                             ",
"    a Y.^ X                                                 ",
"    % 6 *                                                   ",
"                                                            ",
"                                                            ",
"                                                            "
};
