/* XPM */
static char *_780a2d3ab6b4c27925642dee3ed3049MtiZm6ZwE4kHJVeG[] = {
/* columns rows colors chars-per-pixel */
"50 50 175 2 ",
"   c None",
".  c #00002E",
"X  c #000130",
"o  c #000D32",
"O  c #0F0F35",
"+  c #130D35",
"@  c #180E34",
"#  c #001131",
"$  c #0F1533",
"%  c #061932",
"&  c #0C1B33",
"*  c #101035",
"=  c #151C33",
"-  c #1D1D34",
";  c #271732",
":  c #221E35",
">  c #2C1C35",
",  c #2A1E38",
"<  c #341E34",
"1  c #351D38",
"2  c #3D1F39",
"3  c #232034",
"4  c #2C2335",
"5  c #2F2138",
"6  c #322436",
"7  c #3E2535",
"8  c #332836",
"9  c #3A2835",
"0  c #352438",
"q  c #3C253A",
"w  c #3F2B39",
"e  c #402636",
"r  c #452B37",
"t  c #4B2D36",
"y  c #42263B",
"u  c #492739",
"i  c #46293C",
"p  c #4A2A3C",
"a  c #552F37",
"s  c #532F3B",
"d  c #4E3137",
"f  c #4C343A",
"g  c #533137",
"h  c #5B3336",
"j  c #54333C",
"k  c #5B353B",
"l  c #553B3D",
"z  c #5D3B3B",
"x  c #62373C",
"c  c #643A3B",
"v  c #6B3D3C",
"b  c #703F3D",
"n  c #5E403D",
"m  c #64433E",
"M  c #6C433D",
"N  c #6B493F",
"B  c #73423D",
"V  c #7C463D",
"C  c #724C3F",
"Z  c #573F41",
"A  c #5D4241",
"S  c #634542",
"D  c #6D4443",
"F  c #674843",
"G  c #6B4A44",
"H  c #744E42",
"J  c #7D4A42",
"K  c #784F49",
"L  c #775142",
"P  c #7A5243",
"I  c #765148",
"U  c #7C554A",
"Y  c #824A3E",
"T  c #894E3E",
"R  c #825545",
"E  c #8A5545",
"W  c #855845",
"Q  c #8D5A46",
"!  c #82564B",
"~  c #895648",
"^  c #845B4C",
"/  c #8C5D4C",
"(  c #935B46",
")  c #925D4A",
"_  c #8D5E50",
"`  c #8C604F",
"'  c #9A6147",
"]  c #93634A",
"[  c #9B654A",
"{  c #9E6A4C",
"}  c #8B6050",
"|  c #946553",
" . c #996652",
".. c #9C6A55",
"X. c #A1664A",
"o. c #A36C4D",
"O. c #A96E4D",
"+. c #A7704F",
"@. c #AA714F",
"#. c #B0734F",
"$. c #A36D55",
"%. c #A36F58",
"&. c #AD7351",
"*. c #A6725A",
"=. c #AC765C",
"-. c #AF785D",
";. c #B17653",
":. c #B17651",
">. c #B47754",
",. c #B27651",
"<. c #B57952",
"1. c #B67953",
"2. c #B77A53",
"3. c #B57954",
"4. c #B67955",
"5. c #B67954",
"6. c #B67953",
"7. c #B87952",
"8. c #B87A53",
"9. c #B87B53",
"0. c #BA7B53",
"q. c #B97B54",
"w. c #B87B56",
"e. c #BB7C54",
"r. c #BB7D54",
"t. c #BB7D55",
"y. c #BA7C54",
"u. c #BC7D55",
"i. c #BC7E55",
"p. c #BD7E55",
"a. c #BE7F55",
"s. c #BF7F55",
"d. c #BD7E56",
"f. c #BE7F56",
"g. c #BF7F56",
"h. c #BC7D55",
"j. c #B0785D",
"k. c #B1785D",
"l. c #B1795D",
"z. c #B0785E",
"x. c #B2795E",
"c. c #B27A5F",
"v. c #B37A5F",
"b. c #B47B5F",
"n. c #B47B5F",
"m. c #B57C5F",
"M. c #B67C5F",
"N. c #B1795D",
"B. c #B67D61",
"V. c #B97D61",
"C. c #B97E61",
"Z. c #B87D60",
"A. c #BF8055",
"S. c #BF8056",
"D. c #BF8056",
"F. c #C08056",
"G. c #C18156",
"H. c #C08057",
"J. c #C18157",
"K. c #C28156",
"L. c #C28157",
"P. c #C18256",
"I. c #C38257",
"U. c #C28257",
"Y. c #C48357",
"T. c #C58357",
"R. c #C58457",
"E. c #C28156",
"W. c #C58358",
"Q. c #C48358",
"!. c #C58458",
"~. c #C68558",
"^. c #C58458",
"/. c #C98659",
"(. c #CC895A",
/* pixels */
"                                            l G m m G l                                             ",
"                                          A U W.a.a.W.U A                                           ",
"                                    X G %. .P H.e.e.H.P  .%.G X                                     ",
"                                9 n %.=.C. .L H.a.a.H.L  .C.=.Z f f                                 ",
"                              S | v.v.=.v. .L H.a.a.H.L  .v.-.L w.+.N                               ",
"                        . H  .v.v.=.=.=.v. .P H.a.a.H.P  .v.=.( 9.H.H.$.P .                         ",
"                    = F %.=.v...E *.=.=.M.| L H.a.a.H.L | B.-.Q 1.S.e.!.e.;.H =                     ",
"                  A ..-.b.=.Q ] *.=.b.*.| A H H.a.a.H.H A ..*.H ;.a.a.e.a.Y.H.&.m                   ",
"              G | v.=.=.=.=.=.=.v.-.` U U | P H.a.a.H.L  .) ! l 9.H.a.a.a.a.S.a.W.o.H               ",
"        . P ~ =.v.=.=.=.=.-.=.=.} F f ..C. .L H.a.a.H.H R b..._ P { S.a.a.a.a.a.a.H.H.&.P .         ",
"    # m &.H.[ %.=.=.=.=.b.*.| H o.o.K v.=. .P H.a.a.H.L / Q $.v.../ m @.9.H.a.e.a.a.e.R.a.;.m #     ",
"    - w.(.1.J *.=.=.b.=.} P R 9.H.1.H =.v. .L H.a.a.H.L  .=.*.=.v.=.*.) ) O.e.H.e.a.a.e.a.!.w.:     ",
"    4 ;.X.[ z *.v.v.^ U W ;.H.a.S.;.H =.v...L H.a.a.H.L ..b.=.=.=.=.=.v.*.) ' [ H.S.a.a.e.H.3.3     ",
"    4 >.O.e.P ..| S ] @.!.a.a.a.a.;.K =.*.S H H.a.a.H.H S *.=.v.=.=.=.=.=.v.$./ N o.e.H.a.a.3.3     ",
"    - 3.(.9.l l / ;.a.H.e.a.a.e.H.1.A ^ H ] P H.a.a.H.P ] H ^ ..-.-.=.=.=.=.b...H ] N o.1./.3.-     ",
"    6 3.{ W P 9.a.H.a.a.a.a.a.Y.;.X.P { Y.&.P H.a.a.H.P &.Y.{ H ] $.b.=.=.=.v.| P Y.1.P W [ 3.6     ",
"    - ! ) &.Y.a.a.a.e.a.H.H.;.W X.o.H.H.a.Q H H.a.a.H.L @.H.H.H.O.) G *.v.=.v. .P H.a.!.&.Q R -     ",
"    = $.R.H.' ' 1.9.H.a.;.W H O.e.H.a.O.( ' P H.a.a.H.L @.H.e.e.H.1.o.Q ) %.v.%.R H.a.e.H.H.[ =     ",
"    3 e.H.e.e.;.( 1.&.[ N o.e.H.a.a.a.w.a.&.P H.a.a.H.L @.H.a.a.e.a.H.( | S ` ! W Y.e.a.a.o.( 4     ",
"    3 3.H.a.a.!.&.Q G G Y.a.a.a.a.a.a.a.H.@.L H.a.a.H.L &.H.a.a.a.a.e.( =.v.` F z ;.H.a.a.H.3.3     ",
"    : 3.H.a.9.P P | ..H H.a.a.a.a.a.a.a.H.@.P H.e.e.H.L E a.a.a.a.a.a.( *.=.v.=.| ! ~ 9.a.Y.3.:     ",
"    4 3.9.X.Q  .*.C...P H.e.a.a.a.a.a.a.H.@.H H.H.H.H.C o.H.a.a.a.a.a.K *.=.=.=.v.*.| l Q 1.w.4     ",
"    4 { ( ..=.v.=.=.%.( a.S.H.a.a.a.a.a.W.1.e ( o.o.( 7 o.H.a.a.a.a.a.H *.=.=.=.=.v.*.G | G / 4     ",
"    = | v.=.=.=.=.-.%.( H.o.{ a.a.a.H.;.[ R : : * O : = k ' ;.H.a.a.e.H *.=.=.=.=.v.%.G v.v.^ &     ",
"    3 =.v.=.=.=.=.=.*.E ( o.;.S.a.1.( M ; > y 6 q q 6 y q ; M ( 1.a.a.H *.=.=.=.=.*.~ S =.v.=.3     ",
"    3 *.v.=.=.=.=.-.%.E 1.H.H.1.( v 6 0 6 i p 6 y y 0 p y 4 0 6 v ( 1.S =.=.=.-.$.Q  .G =.v.*.3     ",
"    3 *.v.=.=.=.=.v...H !.#.' x r , i p 6 y p 0 y y 0 p y 6 p i , i k r ..v.=.=.=.v.%.G =.v.*.3     ",
"    3 =.v.=.=.=.=.v.%.z ' c < & 4 0 6 6 3 5 0 3 4 4 3 0 5 3 6 6 0 4 & = c ( %.v.=.v.$.G =.v.*.3     ",
"    - $.$.E %.v.=.*.R : < q q i y q q q y y 0 i p p i 0 y y q q q y i y q > M E *.=.*.G =.v.*.3     ",
"    3 ~ [ =.=.%./ c 7 6 i i i i i i i i q i k v V V b k i q i i i i i i i i > 7 c )  .G v.v.*.3     ",
"    3 =.B.%.) x 7 - i p i i i i i i i i x B Y Y Y Y Y Y B k y i i i i i i i p i = r t j %.b.*.3     ",
"    4 ..( v < q 5 6 6 5 6 5 6 5 : : : : r t r r r r r r t t 0 q 0 0 0 0 q 6 5 6 5 6 0 - v ) $.4     ",
"    4 D 6 0 y p q 0 y y y i i p k k k k j p i i p p p p s q @ @ @ @ @ @ + q i y 0 q p y 0 6 D 4     ",
"      % 5 p i i 0 q p i i 1 + 7 h h h h h Y v v T Y Y Y c f U U U U U U U l 1 p q 0 i i p 5 %       ",
"        6 i i p q q i i 1 U | ` } } } } / m v s x k k k w .. .I U U U L | *.j q q 0 i y p 6         ",
"        6 p i y 0 0 s V t | I z S S S z  .m x k B B B u l  .= . . . . . . | G y z k k i i 6         ",
"        6 i q k p 0 V T h ] f . # o # . ] N x v T Y T h l ] o 6 4 4 4 8 . ^ G u v z Y B p 4         ",
"        , j c Y c 5 x c 7 { n & 8 4 6 % { m u j c x c y n { # 3 3 3 3 4 X ] P 1 d x Y V B 7         ",
"        r V Y Y x 5 c B r { f . o o o . [ m x M v v M u n { o 3 3 3 3 4 X ] P 2 k x Y V Y g         ",
"        g Y V Y x 5 V T h o.R m N N N m @.N V T Y Y T s z { o 3 3 3 3 4 X ] L i v z Y V Y d         ",
"        d Y V Y x 5 c v i R { [ [ [ [ [ [ f c v v c v i n { o 3 3 3 3 4 X ] L y c z Y V Y d         ",
"        d Y V Y x 5 c c v k u < h a g a g v c c c c v i n { o 3 3 3 3 4 X ] L y c z Y V Y d         ",
"        d Y V Y x 5 V T Y T V c T T T T T Y Y Y Y Y T s z { o 3 3 3 : 5 X ] L i v z Y V Y d         ",
"        d Y V Y x 5 v M v v c s v v v v v v v v v v B u n { o 3 : 3 : 4 X ] P 2 k x Y V Y d         ",
"        d Y V Y x 6 x c x x c c x c c c c c x c x x c i n { o 3 3 3 3 4 X ] P 1 g x Y V Y d         ",
"        d Y V Y c 5 V Y Y Y Y Y Y Y Y Y Y Y Y Y Y Y T s n o.o 4 3 3 : 4 X [ P i v x Y V Y d         ",
"        d J B J z = 9 9 9 9 9 9 9 9 9 9 9 9 9 9 9 9 7 $ z ...             ] H o 4 k J B J d         ",
"          3 3 :                                         : 3               3 3       : 3 3           ",
"                                                                                                    ",
"                                                                                                    "
};
