/* XPM */
static char *_ef0f89ae37448ebba2349092df9287eHhZ7LOXb2uOS4P6R[] = {
/* columns rows colors chars-per-pixel */
"71 50 140 2 ",
"   c None",
".  c black",
"X  c #000B18",
"o  c #0C1316",
"O  c #1A171A",
"+  c #1B1919",
"@  c #1E1721",
"#  c #252224",
"$  c #2B2526",
"%  c #22272A",
"&  c #2F2C2E",
"*  c #352E2B",
"=  c #2F312F",
"-  c #342C32",
";  c #353434",
":  c #383433",
">  c #3D3B3A",
",  c #423D3B",
"<  c #493C3E",
"1  c #46413F",
"2  c #49423E",
"3  c #464241",
"4  c #4A4442",
"5  c #4F4846",
"6  c #504543",
"7  c #504A46",
"8  c #5A4944",
"9  c #554D4A",
"0  c #5B4F4B",
"q  c #57514E",
"w  c #5B514D",
"e  c #5D5451",
"r  c #74474E",
"t  c #65534D",
"y  c #69554E",
"u  c #625652",
"i  c #685551",
"p  c #655A54",
"a  c #6B5B55",
"s  c #665D58",
"d  c #6B5E5A",
"f  c #755556",
"g  c #735D57",
"h  c #705E59",
"j  c #6E625C",
"k  c #74635D",
"l  c #7B665D",
"z  c #7A685F",
"x  c #766661",
"c  c #796761",
"v  c #766964",
"b  c #7C6B64",
"n  c #7D6F69",
"m  c #83565B",
"M  c #84635A",
"N  c #8A6464",
"B  c #826C64",
"V  c #8A6C64",
"C  c #826E69",
"Z  c #8C7265",
"A  c #84736C",
"S  c #8B746A",
"D  c #9A7867",
"F  c #92746B",
"G  c #987569",
"H  c #94796E",
"J  c #9B7C6D",
"K  c #8D7A71",
"L  c #9C7471",
"P  c #937D74",
"I  c #9E7B72",
"U  c #957F7B",
"Y  c #A37E73",
"T  c #958177",
"R  c #9B8276",
"E  c #96837A",
"W  c #9D867A",
"Q  c #9C887E",
"!  c #A28474",
"~  c #A98674",
"^  c #AD8A77",
"/  c #A3857A",
"(  c #A9857B",
")  c #A2897D",
"_  c #AC8A7C",
"`  c #B18D7E",
"'  c #918B81",
"]  c #A28B82",
"[  c #AB8E82",
"{  c #B28783",
"}  c #B28E83",
"|  c #A69185",
" . c #AD9285",
".. c #AD968B",
"X. c #AE988B",
"o. c #B59386",
"O. c #BA9486",
"+. c #B49689",
"@. c #B8968A",
"#. c #B4998C",
"$. c #BB9B8E",
"%. c #B69F92",
"&. c #BD9D91",
"*. c #B6A192",
"=. c #BCA395",
"-. c #B5A59B",
";. c #BFA598",
":. c #C29E92",
">. c #C4A396",
",. c #CBA195",
"<. c #C1A398",
"1. c #C4A598",
"2. c #C4A699",
"3. c #C8A69A",
"4. c #C6A89B",
"5. c #CAA89B",
"6. c #CDA899",
"7. c #C8A89C",
"8. c #D3AD9F",
"9. c #C5ADA1",
"0. c #C9ADA2",
"q. c #CDACA0",
"w. c #CEACA1",
"e. c #CFAFA3",
"r. c #CBAEA0",
"t. c #D0AFA2",
"y. c #C8B1A4",
"u. c #CBB5A9",
"i. c #D7B1A3",
"p. c #D4B0A4",
"a. c #D4B3A6",
"s. c #D3B1A4",
"d. c #D9B4A6",
"f. c #D9B5A7",
"g. c #DAB5A7",
"h. c #DAB7AB",
"j. c #DAB8AA",
"k. c #DAB8AB",
"l. c #DCBAAD",
"z. c #DDBBAE",
/* pixels */
"                                                                                                                                              ",
"                                                                                                                                              ",
"                                                                                                                                              ",
"                                                                            / R           C B b a                                             ",
"                                                                            +.[       b x k d p w                                             ",
"                                                                             .[     A v p e w                                                 ",
"                                                                          b K K   U b 7 ;                                                     ",
"                                                                        @ $ 2 9   A j ,                                                       ",
"                                                                        < * o X   k p                                                         ",
"                                                                        k u 9 6 i a p                                                         ",
"                                                                      8 g y K ] Y V                                                           ",
"                                                                    P B B l | %._ G                                                           ",
"                                                                  p.%.[ ! H | #._ I                                                           ",
"                                                              ] @.,.:.3.2.) J J W _ /                                                         ",
"                                                              B Z Y O.>.5.&.o.( / +. .                                                        ",
"                                                              0 t M ( o.@.o.[ ( _ +. .!                                                       ",
"                                                              4 a S / ! F M B P [ _ ! J                                                       ",
"                                                                Q y.-.E f r N / o.^ J                                                         ",
"                                                                  u.' C N m I [ _ ~ D                                                         ",
"                                                                    . V { L } @.! ~ D                                                         ",
"                                                                    %.9.0.( @.&._ _ J                                                         ",
"                                                                    ....#.#.<.2.&.O.!                                                         ",
"                                                                    b c H %.<.4.e.,._                                                         ",
"                                                                      d T | #.<.p.6.`                                                         ",
"                                          # # $                     u s n K W &.j.8.}                                                         ",
"                                          # # # &         k b b c x c x d p B #.l.i.+.                                                        ",
"                                            + O -   s u k B A C b b B B k 2 p [ j.f.@.                                                        ",
"                                                    s k k k b k k c z S S j w K e.f.:.                                                        ",
"                                                    j j s d k k k c k S R W K ] e.f.$.M                                                       ",
"                                                    k p u a c k k c k A ] %.#.1.l.p.@.Z                                                       ",
"                                                    d u d k b z k c d K X.=.+.&.z.s.$.H                                                       ",
"                                                    d a k B b k k k a K X.*. .$.h.t.$.R                                                       ",
"                                                  s j h n B k p a k h P ..X.) @.p.7.+.R P                                                     ",
"                                                u 9 e x C b u 5 0 k z W X.) ) #.s.=.[ T                                                       ",
"                                                5 > , C A k 9 1 7 d Z W ) S R #.0.| K n                                                       ",
"                                                1 &   K A j 7 4 5 e B H H z H +.;.K j v                                                       ",
"                                                3 ,     b k 9 9 9 7 e c V k S )  .j s K                                                       ",
"                                                , >     d u e e e 9 3 a B l z k B u v E                                                       ",
"                                                3 ,       e w 9 5 3 ; 9 k z t >   j A E                                                       ",
"                                              j 9           7 > = ; % 4 a c       A K T                                                       ",
"                                            u v u         e 5           s b       A P ]                                                       ",
"                                            4 e             1         4 q d       v A ]                                                       ",
"                                                            3         > 4 9       j n                                                         ",
"                                                            5       : : :         k b                                                         ",
"                                                          u u                   4 b                                                           ",
"                                                        u p k                 2 j A                                                           ",
"                                                        w p k                 9 A                                                             ",
"                                                          ,                   9 n                                                             ",
"                                                                                                                                              ",
"                                                                                                                                              "
};
