/* XPM */
static char *_b702aecb9804629f661a7b1210e8eeedNlLH3T3Vb2dAhkX[] = {
/* columns rows colors chars-per-pixel */
"32 50 187 2 ",
"   c None",
".  c black",
"X  c #07090A",
"o  c #0D0D0E",
"O  c #1B0000",
"+  c #100E15",
"@  c #1C1B1B",
"#  c #131415",
"$  c #2F1F12",
"%  c #221D19",
"&  c #2C2019",
"*  c #30211C",
"=  c #272022",
"-  c #2A2827",
";  c #2A2B2D",
":  c #3C3535",
">  c #35373A",
",  c #3C3C3C",
"<  c #363537",
"1  c #42302F",
"2  c #4E3A2C",
"3  c #423D3A",
"4  c #4A3A38",
"5  c #4E3D31",
"6  c #612722",
"7  c #46413C",
"8  c #4B443E",
"9  c #594A3D",
"0  c #3C3D43",
"q  c #373C44",
"w  c #403F42",
"e  c #434245",
"r  c #4B4644",
"t  c #4D4946",
"y  c #45444A",
"u  c #48474B",
"i  c #47484D",
"p  c #4C4A4B",
"a  c #5B4B44",
"s  c #524D4C",
"d  c #584D4A",
"f  c #514B46",
"g  c #55514D",
"h  c #5A534C",
"j  c #5E594E",
"k  c #4C4B51",
"l  c #524F51",
"z  c #555252",
"x  c #5B5653",
"c  c #5D5A54",
"v  c #5B5A5D",
"b  c #604844",
"n  c #6C4D4B",
"m  c #665240",
"M  c #61564C",
"N  c #64594D",
"B  c #685B4F",
"V  c #6C534F",
"C  c #785C4D",
"Z  c #605655",
"A  c #655B53",
"S  c #6E5B52",
"D  c #635D5A",
"F  c #695F5C",
"G  c #6C6356",
"H  c #67615C",
"J  c #6C635B",
"K  c #6E6A54",
"L  c #736355",
"P  c #75655A",
"I  c #7A6759",
"U  c #74695E",
"Y  c #7B6B5D",
"T  c #75715C",
"R  c #5E5D61",
"E  c #625F60",
"W  c #646263",
"Q  c #6B6663",
"!  c #6E6965",
"~  c #6C6968",
"^  c #726761",
"/  c #746B64",
"(  c #7A6E63",
")  c #736C6C",
"_  c #7A6D6B",
"`  c #7D7165",
"'  c #7D7369",
"]  c #787370",
"[  c #935B5C",
"{  c #89674F",
"}  c #836E5D",
"|  c #89735F",
" . c #837465",
".. c #8B7365",
"X. c #817469",
"o. c #867A6C",
"O. c #8B7C6C",
"+. c #857F64",
"@. c #967C6C",
"#. c #807471",
"$. c #8A7C70",
"%. c #817C7A",
"&. c #83777D",
"*. c #937D70",
"=. c #A77169",
"-. c #878068",
";. c #8C846D",
":. c #91836F",
">. c #8D8174",
",. c #8C847A",
"<. c #928475",
"1. c #9F8775",
"2. c #968A74",
"3. c #9A8C76",
"4. c #94897D",
"5. c #9C8D7B",
"6. c #A18275",
"7. c #A9877F",
"8. c #A28C7B",
"9. c #A3937C",
"0. c #AC997D",
"q. c #8B8289",
"w. c #9D8E80",
"e. c #92888B",
"r. c #9C9183",
"t. c #9F948C",
"y. c #9F9B93",
"u. c #A49685",
"i. c #AA9781",
"p. c #AB9C84",
"a. c #A69788",
"s. c #A69B8A",
"d. c #AB9D8A",
"f. c #A99886",
"g. c #B19E84",
"h. c #BA9981",
"j. c #AC9A94",
"k. c #ABA089",
"l. c #B3A285",
"z. c #B3A48C",
"x. c #B8A78E",
"c. c #B8A98F",
"v. c #BAA486",
"b. c #B3A493",
"n. c #B5A890",
"m. c #BBAC93",
"M. c #B7A799",
"N. c #BAA69C",
"B. c #BAAB9B",
"V. c #B5A99A",
"C. c #B7A6A3",
"Z. c #BCB0AA",
"A. c #C5AF8E",
"S. c #C0A590",
"D. c #C5AA90",
"F. c #C3B39D",
"G. c #C8B79D",
"H. c #CDBA9D",
"J. c #C4AEA2",
"K. c #C9B7A2",
"L. c #C7B8A4",
"P. c #CDBBA3",
"I. c #C7B6A7",
"U. c #D2BBA5",
"Y. c #C3BFB6",
"T. c #CCBDB3",
"R. c #D2BEB4",
"E. c #D5C4A9",
"W. c #DECAAF",
"Q. c #D3C3B3",
"!. c #D9C7B5",
"~. c #D7C9B4",
"^. c #DCCBB2",
"/. c #DBCAB9",
"(. c #DFD4BC",
"). c #E1CDB5",
"_. c #E2D2BA",
"`. c #E9D5BD",
"'. c #EAD9BB",
"]. c #EFDDC5",
"[. c #F2DDC5",
"{. c #EDE1CF",
"}. c #F6E6CD",
"|. c #F9E5C7",
" X c #F7E9D0",
".X c #FFEAD2",
"XX c #FFF1D4",
/* pixels */
"                                                                ",
"                          `                                     ",
"  c l                   >.>.                                    ",
"  Y ( q               ' 8.(                                     ",
"  X.5.^ e             $.5.U                                     ",
"    <.' x 0   g :     4.<.F                                     ",
"      / i 0 z 3 % 7 / ^ o.x                                     ",
"        X.d B N P P N r x                                       ",
"        o.}  ...@.Y I r ,                                       ",
"          V.A  .} U J h                                         ",
"        U.U.j.T.Z.t._                                           ",
"      B.z.N.J.J.C.e.#.                                          ",
"    F.x.M.C.6.1.P _ &.J                                         ",
"    g.9.R.N.8.| S ) q.! _                                       ",
"    g.i.f.@.{ C a Z &.Q !                                       ",
"    0.p...,.Y.r./ 4 d h Q                                       ",
"    p.l...%.{.L.y.; 3 s D                               r       ",
"    g.v.*.I =.[ L 1 d r                               @ @       ",
"      0.1.V [ [ S n h s                             - X o       ",
"        h.,.M.7.A a h                               @ X @       ",
"        D.6.B.$.: M a                                 #         ",
"        H.S.6 b F h 8 x                               3         ",
"        A.].B.,.X.9 7 z s                               r       ",
"          ].{.K.9.N 8 g l s D                           7       ",
"          `.[.!.d.L t p k y y z D         H D D x D     7 r     ",
"          `..X/.b. .A s i p s e k s p p p p y k k p p   r r     ",
"            .X!.J.5. .G U O.U p e e 0 0 0 0 e i i y e y r p     ",
"            }.`._.z.O.o.:.;.J x y e y e 0 e y y u y e y p s     ",
"             X[.`.F.9.3.3.O.( D y y u z F l y y y y e e y p     ",
"            XX|.).G.z.9.2.O.U Z e p l / $.^ k y i u e e y s     ",
"          ^.|.[.^.G.z.u.2.o.J z w y l ' o.' H k k p y e y l     ",
"          (.'.`.^.P.m.k.5. .J s e y p ` O.' ^ D l z i e y z     ",
"            _.W.).E.m.z.d.O.J s e p p / o.( / H z z p y y z     ",
"            ~.E.W.P.m.n.b.<.G g r p i U O. .( / v R p g x z     ",
"            ~.^.P.F.c.z.b.r.( A p l s A O.o./ H W W y p F x     ",
"              F.m.m.l.p.d.s.O.P t z x z ` X.J D ~ W < e z c     ",
"              m.p.9.l.i.5.s.<.Y s v E D Q ~ W W ~ D w > e z     ",
"                l.' o.2.;.u.w.Y s W W Q W R ~ ) ! F   > , s     ",
"                l.p.      4.a.Y h ! ) ) ) ~ ] ! f g     , e H   ",
"                z.x.'       b.U                 : t x   , , s   ",
"                p.x.o.    I.b.U                 g 0 s   , , h   ",
"                  x.,.    Q.M.J                 c e t     3 N   ",
"                  5.<.      b.                  c , x     8 j   ",
"                  5.2.      b.                  c ,       G U   ",
"                  <.3./   Q.M.                  ' h       -.    ",
"                  o.O.s   K.P.                  d.x     K ;.    ",
"                  / H   F.P.u.                K.x.W     +.T     ",
"                8 3 r ` ,.r.                M ` `     M M j     ",
"              m 2 & 5 2 . +                 $ O       9 * =     ",
"                                                                "
};
