/* XPM */
static char *dd6e09ded56f432986a138de3a796117RdG6vmw6bk2aMzf6[] = {
/* columns rows colors chars-per-pixel */
"50 50 130 2 ",
"   c black",
".  c #0B0000",
"X  c #150000",
"o  c #190606",
"O  c #160F12",
"+  c #2D0807",
"@  c #270909",
"#  c #2F0D0B",
"$  c #290D0D",
"%  c #20191C",
"&  c #261B1D",
"*  c #291A1C",
"=  c #331211",
"-  c #391111",
";  c #3C1312",
":  c #381516",
">  c #3A1A1B",
",  c #2B1F24",
"<  c #2E2024",
"1  c #322226",
"2  c #3E2124",
"3  c #3D2528",
"4  c #45100D",
"5  c #411615",
"6  c #4B1B1B",
"7  c #4E1E1E",
"8  c #521F1E",
"9  c #432729",
"0  c #4D2C2F",
"q  c #522021",
"w  c #552222",
"e  c #5A2425",
"r  c #652322",
"t  c #682B2B",
"y  c #6D2928",
"u  c #6B2D2D",
"i  c #6C2D2D",
"p  c #712826",
"a  c #722F2F",
"s  c #7C2F2D",
"d  c #7D302D",
"f  c #712F30",
"g  c #623639",
"h  c #6C3C3F",
"j  c #733031",
"k  c #753131",
"l  c #763535",
"z  c #793333",
"x  c #7F3130",
"c  c #783C3E",
"v  c #6E4549",
"b  c #724549",
"n  c #7E4D52",
"m  c #80302E",
"M  c #833231",
"N  c #853635",
"B  c #893A3A",
"V  c #923734",
"C  c #923937",
"Z  c #903B3A",
"A  c #933C3C",
"S  c #943E3D",
"D  c #9F3C39",
"F  c #A03C39",
"G  c #A53F3C",
"H  c #99403F",
"J  c #A2413F",
"K  c #974141",
"L  c #994242",
"P  c #9B4444",
"I  c #9C4444",
"U  c #9C4849",
"Y  c #8B575D",
"T  c #A34342",
"R  c #A44140",
"E  c #A54443",
"W  c #A34747",
"Q  c #A64645",
"!  c #A94341",
"~  c #AA4747",
"^  c #AB4847",
"/  c #A74949",
"(  c #AA4B4B",
")  c #AC4B4B",
"_  c #AA4B4C",
"`  c #AD4C4C",
"'  c #B04E4E",
"]  c #B44F50",
"[  c #AE5152",
"{  c #AE595D",
"}  c #B05253",
"|  c #B55051",
" . c #B35354",
".. c #B55455",
"X. c #9B5E63",
"o. c #A16066",
"O. c #A3686F",
"+. c #BE6265",
"@. c #B37279",
"#. c #B6737A",
"$. c #B5747B",
"%. c #BA767E",
"&. c #C06367",
"*. c #C16467",
"=. c #C46569",
"-. c #D0797F",
";. c #D37A81",
":. c #D47B81",
">. c #D57C82",
",. c #D47F87",
"<. c #DA7F86",
"1. c #CF838B",
"2. c #DB8086",
"3. c #D0848B",
"4. c #D0848C",
"5. c #D68790",
"6. c #D88991",
"7. c #DF8991",
"8. c #EB8E96",
"9. c #EC8F96",
"0. c #EE9098",
"q. c #F2929A",
"w. c #F2959D",
"e. c #F4949C",
"r. c #F597A0",
"t. c #F399A2",
"y. c #F59AA3",
"u. c #F69AA4",
"i. c #FA9AA3",
"p. c #FC9EA8",
/* pixels */
"u.u.u.u.u.u.u.u.u.u.u.u.u.u.u.u.u.u.u.u.u.u.u.u.u.u.u.u.y.p.t.n b w.p.y.u.u.u.u.u.u.u.u.u.u.u.u.u.u.",
">.>.>.>.>.>.>.>.>.>.>.>.>.>.>.>.>.>.>.>.>.>.>.>.>.>.>.>.:.<.;.h g -.2.:.>.>.>.>.>.>.>.>.>.>.>.>.>.>.",
"E E E E E E E E E E E E E E E E E E E E E E E E E E E E E ~ T 8 6 T ~ E E E E E E E E E E E E E E E ",
"Q Q Q Q Q Q Q Q Q Q Q Q Q Q Q Q Q Q Q Q Q Q Q Q Q Q Q Q Q ~ Q 8 6 T ^ Q Q Q Q Q Q Q Q Q Q Q Q Q Q Q ",
"( ( ( ( ( ( ( ( ( ( ( ( ( ( ( ( ( ( ( ( ( ( ( ( ( ( ( ( ( ` ( w 7 / ` ( ( ( ( ( ( ( ( ( ( ( ( ( ( ( ",
"( ( ( ( ( ( ( ( ( ( ( ( ( ( ( ( ( ( ( ( ( ( ( ( ( ( ( ( ( ` / w 7 / ` / ( ( ( ( ( ( ( ( ( ( ( ( ( ( ",
"( ( ( ( ( ( ( ( ( ( ( ( ( ( ( ( ( ( ( ( ( ( ( ( ( ( ( ( ( ` / w 7 / ` ( ( ( ( ( ( ( ( ( ( ( ( ( ( ( ",
"( ( ( ( ( ( ( ( ( ( ( ( ( ( ( ( ( ( ( ( ( ( ( ( ( ( ( ( ( ` / w 7 / ` ( ( ( ( ( ( ( ( ( ( ( ( ( ( ( ",
"( ( ( ( ( ( ( ( ( ( ( ( ( ( ( ( ( ( ( ( ( ( ( ( ( ( ( ( ( ` / w 7 / ` ( ( ( ( ( ( ( ( ( ( ( ( ( ( ( ",
"' ' ' ' ' ' ' ' ' ' ' ' ' ' ' ' ' ' ' ' ' ' ' ' ` ' ' ' ' | ` e q ` | ' ' ' ' ' ' ' ' ' ' ' ' ' ' ' ",
"S S S S S S S S S S S S S S S S S S S S S S S K L S S S S H A 5 ; Z H A S S S S S S S S S S S S S S ",
"                                              + - .                                                 ",
"@.@.@.@.@.@.@.@.@.@.@.@.@.@.@.@.@.@.@.@.@.$.$.v % O.%.@.@.@.@.#.#.@.@.@.@.@.@.@.@.@.@.@.@.@.@.@.@.@.",
"w.w.w.w.w.w.w.w.w.w.w.w.w.w.w.w.w.w.w.w.w.r.y.X.0 7.i.w.w.w.w.w.w.w.w.w.w.w.w.w.w.w.w.w.w.w.w.w.w.w.",
"+.+.+.+.+.+.+.+.+.+.+.+.+.+.+.+.+.+.+.+.+.&.*.c > { =.+.+.+.+.+.+.+.+.+.+.+.+.+.+.+.+.+.+.+.+.+.+.+.",
"F D F F F F D D D F F D F F F D D D D F D F F r # V G D D F F D F F F F D F F F F F D D D F F D F F ",
"( ( ( ( ( ( ( ( ( ( ( ( ( ( ( ( ( ( ( ( ( ` ` i = I ' ( ( ( ( ( ( ( ( ( ( ( ( ( ( ( ( ( ( ( ( ( ( ( ",
"( ( ( ( ( ( ( ( ( ( ( ( ( ( ( ( ( ( ( ( ( ) ` u = P ` ( ( ( ( ( ( ( ( ( ( ( ( ( ( ( ( ( ( ( ( ( ( ( ",
"( ( ( ( ( ( ( ( ( ( ( ( ( ( ( ( ( ( ( ( ( ) ` u = L ` ( ( ( ( ( ( ( ( ( ( ( ( ( ( ( ( ( ( ( ( ( ( ( ",
"( ( ( ( ( ( ( ( ( ( ( ( ( ( ( ( ( ( ( ( ( ) ` u = L ` ( ( ( ( ( ( ( ( ( ( ( ( ( ( ( ( ( ( ( ( ( ( ( ",
"( ( ( ( ( ( ( ( ( ( ( ( ( ( ( ( ( ( ( ( ( ) ` u = L ` ( ( ( ( ( ( ( ( ( ( ( ( ( ( ( ( ( ( ( ( ( ( ( ",
"( ( ( ( ( ( ( ( ( ( ( ( ( ( ( ( ( ( ( ( ( ) ` u = L ` ( ( ( ( ( ( ( ( ( ( ( ( ( ( ( ( ( ( ( ( ( ( ( ",
"( ( ( ( ( ( ( ( ( ( ( ( ( ( ( ( ( ( ( ( ( ) ` u = L ` ( ( ( ( ( ( ( ( ( ( ( ( ( ( ( ( ( ( ( ( ( ( ( ",
"( ( ( ( ( ( ( ( ( ( ( ( ( ( ( ( ( ( ( ( ( ( ` u = L ` ( ( ( ( ( ( ( ( ( ( ( ( ( ( ( ( ( ( ( ( ( ( ( ",
"( ( ( ( ( ( ( ( ( ( ( ( ( ( ( ( ( ( ( ( ( ) ` u = L ` ( ( ( ( ( ( ( ( ( ( ( ( ( ( ( ( ( ( ( ( ( ( ( ",
"( ( ( ( ( ( ( ( ( ( ( ( ( ( ( ( ( ( ( ( ( ) ` u = P ` ( ( ( ( ( ( ( ( ( ( ( ( ( ( ( ( ( ( ( ( ( ( ( ",
"( ( ( ( ( ( ( ( ( ( ( ( ( ( ( ( ( ( ( ( ( ( ) u = L ` ( ( ( ( ( ( ( ( ( ( ( ( ( ( ( ( ( ( ( ( ( ( ( ",
"( ( ( ( ( ( ( ( ( ( ( ( ( ( ( ( ( ( ( ( ( ) ` i = I ' ( ( ( ( ( ( ( ( ( ( ( ( ( ( ( ( ( ( ( ( ( ( ( ",
"' ' ' ' ' ' ' ' ' ' ' ' ' ' ' ' ' ' ' ' ' ' ] f : W | ' ' ' ' ' ' ' ' ' ` ' ' ' ' ' ' ' ' ' ' ' ' ' ",
"d d d d s s d d d d d d d d d d d d d d s d m 4   p M s d d d d d d s x B N s s d d d d d d d d d d ",
"< < < < < < < < < < < < < < < < < < < < < < < 3 9 1 , < < < < < < < 1 & X O < 1 < < < < < < < < < < ",
"4.4.4.4.4.3.4.4.4.4.4.4.4.3.4.3.4.4.4.4.4.4.4.4.4.4.3.4.4.4.3.4.3.1.6.%.* Y 5.4.1.4.4.4.4.4.4.4.4.4.",
"9.9.9.9.9.9.9.9.9.9.9.9.9.9.9.9.9.9.9.9.9.9.9.8.8.9.9.9.9.9.9.9.9.8.e.,.2 o.q.0.8.9.9.9.9.9.9.9.9.9.",
"[ [ [ [ [ [ [ [ [ [ [ [ [ [ [ [ [ [ [ [ [ [ [ [ [ [ [ [ [ [ [ [ [ [ ..U $ l  .} [ [ [ [ [ [ [ [ [ [ ",
"J J J J J J J J J J J J J J J J J J J J J J J J J J J J J J J J J J ! C @ y R R J J J J J J J J J J ",
"_ _ _ _ _ _ _ _ _ _ _ _ _ _ _ _ _ ( ( ( _ _ _ _ _ _ _ _ _ _ _ _ _ ( ' L $ j ` ` _ _ _ _ _ _ _ _ _ _ ",
"( ( ( ( ( ( ( ( ( ( ( ( ( ( ( ( ( ( ( ( ( ( ( ( ( ( ( ( ( ( ( ( ( ( ' K $ a ` ( ( ( ( ( ( ( ( ( ( ( ",
"( ( ( ( ( ( ( ( ( ( ( ( ( ( ( ( ( ( ( ( ( ( ( ( ( ( ( ( ( ( ( ( ( ( ' L $ a ` ( ( ( ( ( ( ( ( ( ( ( ",
"( ( ( ( ( ( ( ( ( ( ( ( ( ( ( ( ( ( ( ( ( ( ( ( ( ( ( ( ( ( ( ( ( ( ' L $ a ` ( ( ( ( ( ( ( ( ( ( ( ",
"( ( ( ( ( ( ( ( ( ( ( ( ( ( ( ( ( ( ( ( ( ( ( ( ( ( ( ( ( ( ( ( ( ( ' L $ a ` ( / ( ( ( ( ( ( ( ( ( ",
"( ( ( ( ( ( ( ( ( ( ( ( ( ( ( ( ( ( ( ( ( ( ( ( ( ( ( ( ( ( ( ( ( ( ' L $ a ` ( / ( ( ( ( ( ( ( ( ( ",
"( ( ( ( ( ( ( ( ( ( ( ( ( ( ( ( ( ( ( ( ( ( ( ( ( ( ( ( ( ( ( ( ( ( ' L $ a ` ( / ( ( ( ( ( ( ( ( ( ",
"( ( ( ( ( ( ( ( ( ( ( ( ( ( ( ( ( ( ( ( ( ( ( ( ( ( ( ( ( ( ( ( ( ( ' L $ a ` ( / ( ( ( ( ( ( ( ( ( ",
"( ( ( ( ( ( ( ( ( ( ( ( ( ( ( ( ( ( ( ( ( ( ( ( ( ( ( ( ( ( ( ( ( ( ' L $ a ` ( / ( ( ( ( ( ( ( ( ( ",
"( ( ( ( ( ( ( ( ( ( ( ( ( ( ( ( ( ( ( ( ( ( ( ( ( ( ( ( ( ( ( ( ( ( ' L $ a ` ( ( ( ( ( ( ( ( ( ( ( ",
"/ / ( / ( ( ( ( ( ( ( ( / / ( / ( ( ( ( ( ( ( ( / / ( / ( ( ( ( ( ( ` K $ a ` ( ( ( ( ( ( ( / / ( ( ",
") ) ) ) ) ) ) ) ) ) ) ) ) ) ) ) ) ) ) ) ) ) ) ) ) ) ) ) ) ) ) ) ) ( ' L $ k ' ` ( ) ) ) ) ) ( ( ) ) ",
") ) ) ) ) ( ) ) ) ) ) ) ) ) ) ) ) ( ) ) ) ) ) ) ) ) ) ) ) ) ) ) ) ) ' L $ k ' ` ( ) ) ) ) ) ) ) ) ) ",
"k k k k k k k k k k k k k k k k k k k k k k k k k k k k k k k k k k z t o 7 z k k k k k k k k k k k ",
"                                                                                                    "
};
